<svg version="1.2" xmlns="http://www.w3.org/2000/svg" viewBox="0 0 256 256" width="256" height="256">
	<title>platformio</title>
	<style>
		.s0 { fill: #242938 } 
		.s1 { fill: #ff7f00 } 
		.s2 { fill: #ffffff } 
		.s3 { fill: #e57200 } 
	</style>
	<path fill-rule="evenodd" class="s0" d="m40 0h176c22.09 0 40 17.91 40 40v176c0 22.09-17.91 40-40 40h-176c-22.09 0-40-17.91-40-40v-176c0-22.09 17.91-40 40-40z"/>
	<path class="s1" d="m128 43c-22.7 0-44.05 8.84-60.1 24.9-16.06 16.05-24.9 37.4-24.9 60.1 0 22.7 8.84 44.05 24.9 60.1 16.05 16.06 37.4 24.9 60.1 24.9 22.7 0 44.05-8.84 60.1-24.9 16.06-16.05 24.9-37.4 24.9-60.1 0-22.7-8.84-44.05-24.9-60.1-16.05-16.06-37.4-24.9-60.1-24.9z"/>
	<path class="s2" d="m208.61 128c0 44.52-36.09 80.61-80.61 80.61-44.52 0-80.61-36.09-80.61-80.61 0-44.52 36.09-80.61 80.61-80.61 44.52 0 80.61 36.09 80.61 80.61z"/>
	<path class="s3" d="m149.83 92.18l3.41-12.31c3.5-0.31 6.24-3.24 6.24-6.82 0-3.79-3.07-6.85-6.85-6.85-3.79 0-6.86 3.06-6.86 6.85 0 2.49 1.34 4.67 3.33 5.87l-3.35 12.08c-9.59-2.44-17.68-2.25-17.68-2.25l-1.5 0.67v93.55l1.5 0.5c9.04 0 48.59-27.32 48.69-56.63 0-21-13.96-30.43-26.93-34.66zm-9.53 60.26c-7.71-12.32-4.45-41.01 15.71-45.11 5.52-0.88 12.29 2.75 14.28 10.81 5.03 17.11-24.58 41.07-29.99 34.3zm12.1-26.4c-1.65 0-3.24 0.66-4.41 1.83-1.17 1.17-1.83 2.76-1.83 4.41q0 1.24 0.47 2.39 0.48 1.15 1.36 2.02 0.88 0.88 2.02 1.36 1.15 0.47 2.39 0.47 1.24 0 2.39-0.47 1.15-0.48 2.03-1.36 0.87-0.88 1.35-2.02 0.47-1.15 0.47-2.39c0-1.66-0.65-3.24-1.83-4.41-1.17-1.17-2.75-1.83-4.41-1.83zm1.87 5.76q-0.32 0-0.61-0.12-0.29-0.12-0.51-0.34-0.22-0.23-0.34-0.52-0.12-0.28-0.12-0.6 0-0.31 0.12-0.6 0.12-0.29 0.34-0.51 0.22-0.23 0.51-0.35 0.29-0.11 0.61-0.11c0.42 0 0.82 0.16 1.11 0.46 0.3 0.29 0.46 0.69 0.46 1.11 0 0.42-0.16 0.82-0.46 1.12-0.29 0.29-0.69 0.46-1.11 0.46z"/>
	<path class="s1" d="m110.32 91.28l-3.34-12.55c1.91-1.21 3.18-3.34 3.18-5.78 0-3.78-3.07-6.85-6.85-6.85-3.79 0-6.86 3.07-6.86 6.85 0 3.78 3.05 6.84 6.82 6.86l3.35 12.58c-13.02 4.32-27.15 13.78-27.15 34.45 0.29 29.89 39.56 56.63 48.6 56.63v-94.72c0 0-8.14-0.04-17.75 2.53zm6.9 61.16c-5.4 6.77-35.02-17.19-29.99-34.3 2-8.06 8.76-11.69 14.29-10.81 20.15 4.1 23.41 32.78 15.7 45.11zm-12.5-26.21c-1.65 0-3.24 0.66-4.41 1.83-1.17 1.17-1.83 2.76-1.83 4.41q0 1.25 0.48 2.39 0.47 1.15 1.35 2.03 0.88 0.87 2.02 1.35 1.15 0.47 2.39 0.48 1.24-0.01 2.39-0.48 1.15-0.48 2.03-1.35 0.87-0.88 1.35-2.03 0.47-1.14 0.47-2.39c0-1.65-0.65-3.24-1.82-4.41-1.17-1.17-2.76-1.83-4.42-1.83zm-1.86 5.76c-0.42 0-0.82-0.17-1.12-0.46-0.29-0.3-0.46-0.7-0.46-1.12 0-0.41 0.17-0.82 0.46-1.11 0.3-0.3 0.7-0.46 1.12-0.46 0.41 0 0.82 0.16 1.11 0.46 0.3 0.29 0.46 0.7 0.46 1.11 0 0.42-0.16 0.82-0.46 1.12-0.29 0.29-0.7 0.46-1.11 0.46z"/>
</svg>